# xmcd
#
# Track frame offsets:
# 150
# 13617
# 29162
# 43295
# 58985
# 73580
# 89017
# 100685
# 118792
# 131890
# 147020
# 162905
# 181637
# 194370
# 206802
# 218310
# 233075
#
# Disc length: 3358 seconds
#
# Revision: 0
# Processed by: cddbd v1.4PL0 Copyright (c) Steve Scherf et al.
# Submitted via: Audion 3.0.2 (http://www.panic.com/audion/)
#
DISCID=fb0d1c11
DTITLE=Tamra Rosanes - Cowgirl In Love
DYEAR=1900
DGENRE=
TTITLE0=Let The Good Times Roll
TTITLE1=It Was Only You
TTITLE2=Cowgirl In Love
TTITLE3=Would You Lay With Me
TTITLE4=Every Litlle Thing
TTITLE5=I Just Wanna Dance With You
TTITLE6=Rub It In
TTITLE7=A Taste Of You
TTITLE8=Girls Nights Out
TTITLE9=The End Of The World
TTITLE10=Hopeless Romantic
TTITLE11=I Bet You Say That To All The Girls
TTITLE12=My Toot Toot
TTITLE13=The Final Call
TTITLE14=Danish Style
TTITLE15=Oh Lonesome Me
TTITLE16=Help Me Make It Through The Night
EXTD=
EXTT0=
EXTT1=
EXTT2=
EXTT3=
EXTT4=
EXTT5=
EXTT6=
EXTT7=
EXTT8=
EXTT9=
EXTT10=
EXTT11=
EXTT12=
EXTT13=
EXTT14=
EXTT15=
EXTT16=
PLAYORDER=
